<mxfile host="Electron" modified="2024-12-13T07:25:25.796Z" agent="Mozilla/5.0 (Macintosh; Intel Mac OS X 10_15_7) AppleWebKit/537.36 (KHTML, like Gecko) draw.io/24.6.4 Chrome/124.0.6367.207 Electron/30.0.6 Safari/537.36" etag="0ptCjtAgAdz3U5zTZ0V2" version="24.6.4" type="device">
  <diagram name="Page-1" id="YimXa1FSQ-Ff7Xxbw_x4">
    <mxGraphModel dx="954" dy="674" grid="1" gridSize="10" guides="1" tooltips="1" connect="1" arrows="1" fold="1" page="1" pageScale="1" pageWidth="1100" pageHeight="850" math="0" shadow="0">
      <root>
        <mxCell id="0" />
        <mxCell id="1" parent="0" />
        <mxCell id="Tnm88RIQW7SJwEOPlLvu-1" value="" style="whiteSpace=wrap;html=1;aspect=fixed;" vertex="1" parent="1">
          <mxGeometry x="350" y="90" width="40" height="40" as="geometry" />
        </mxCell>
        <mxCell id="Tnm88RIQW7SJwEOPlLvu-2" value="" style="whiteSpace=wrap;html=1;aspect=fixed;" vertex="1" parent="1">
          <mxGeometry x="350" y="140" width="40" height="40" as="geometry" />
        </mxCell>
        <mxCell id="Tnm88RIQW7SJwEOPlLvu-3" value="" style="whiteSpace=wrap;html=1;aspect=fixed;" vertex="1" parent="1">
          <mxGeometry x="350" y="190" width="40" height="40" as="geometry" />
        </mxCell>
        <mxCell id="Tnm88RIQW7SJwEOPlLvu-4" value="" style="whiteSpace=wrap;html=1;aspect=fixed;" vertex="1" parent="1">
          <mxGeometry x="350" y="240" width="40" height="40" as="geometry" />
        </mxCell>
        <mxCell id="Tnm88RIQW7SJwEOPlLvu-5" value="" style="whiteSpace=wrap;html=1;aspect=fixed;" vertex="1" parent="1">
          <mxGeometry x="400" y="70" width="40" height="40" as="geometry" />
        </mxCell>
        <mxCell id="Tnm88RIQW7SJwEOPlLvu-6" value="" style="whiteSpace=wrap;html=1;aspect=fixed;" vertex="1" parent="1">
          <mxGeometry x="400" y="120" width="40" height="40" as="geometry" />
        </mxCell>
        <mxCell id="Tnm88RIQW7SJwEOPlLvu-7" value="" style="whiteSpace=wrap;html=1;aspect=fixed;" vertex="1" parent="1">
          <mxGeometry x="400" y="170" width="40" height="40" as="geometry" />
        </mxCell>
        <mxCell id="Tnm88RIQW7SJwEOPlLvu-8" value="" style="whiteSpace=wrap;html=1;aspect=fixed;" vertex="1" parent="1">
          <mxGeometry x="400" y="220" width="40" height="40" as="geometry" />
        </mxCell>
        <mxCell id="Tnm88RIQW7SJwEOPlLvu-9" value="" style="whiteSpace=wrap;html=1;aspect=fixed;" vertex="1" parent="1">
          <mxGeometry x="400" y="270" width="40" height="40" as="geometry" />
        </mxCell>
        <mxCell id="Tnm88RIQW7SJwEOPlLvu-10" value="" style="whiteSpace=wrap;html=1;aspect=fixed;" vertex="1" parent="1">
          <mxGeometry x="450" y="50" width="40" height="40" as="geometry" />
        </mxCell>
        <mxCell id="Tnm88RIQW7SJwEOPlLvu-11" value="" style="whiteSpace=wrap;html=1;aspect=fixed;" vertex="1" parent="1">
          <mxGeometry x="450" y="100" width="40" height="40" as="geometry" />
        </mxCell>
        <mxCell id="Tnm88RIQW7SJwEOPlLvu-12" value="" style="whiteSpace=wrap;html=1;aspect=fixed;" vertex="1" parent="1">
          <mxGeometry x="450" y="150" width="40" height="40" as="geometry" />
        </mxCell>
        <mxCell id="Tnm88RIQW7SJwEOPlLvu-13" value="" style="whiteSpace=wrap;html=1;aspect=fixed;" vertex="1" parent="1">
          <mxGeometry x="450" y="200" width="40" height="40" as="geometry" />
        </mxCell>
        <mxCell id="Tnm88RIQW7SJwEOPlLvu-14" value="" style="whiteSpace=wrap;html=1;aspect=fixed;" vertex="1" parent="1">
          <mxGeometry x="450" y="250" width="40" height="40" as="geometry" />
        </mxCell>
        <mxCell id="Tnm88RIQW7SJwEOPlLvu-16" value="" style="whiteSpace=wrap;html=1;aspect=fixed;" vertex="1" parent="1">
          <mxGeometry x="500" y="80" width="40" height="40" as="geometry" />
        </mxCell>
        <mxCell id="Tnm88RIQW7SJwEOPlLvu-17" value="" style="whiteSpace=wrap;html=1;aspect=fixed;" vertex="1" parent="1">
          <mxGeometry x="500" y="130" width="40" height="40" as="geometry" />
        </mxCell>
        <mxCell id="Tnm88RIQW7SJwEOPlLvu-18" value="" style="whiteSpace=wrap;html=1;aspect=fixed;" vertex="1" parent="1">
          <mxGeometry x="500" y="180" width="40" height="40" as="geometry" />
        </mxCell>
        <mxCell id="Tnm88RIQW7SJwEOPlLvu-19" value="" style="whiteSpace=wrap;html=1;aspect=fixed;" vertex="1" parent="1">
          <mxGeometry x="500" y="230" width="40" height="40" as="geometry" />
        </mxCell>
        <mxCell id="Tnm88RIQW7SJwEOPlLvu-25" value="" style="whiteSpace=wrap;html=1;aspect=fixed;" vertex="1" parent="1">
          <mxGeometry x="550" y="90" width="40" height="40" as="geometry" />
        </mxCell>
        <mxCell id="Tnm88RIQW7SJwEOPlLvu-26" value="" style="whiteSpace=wrap;html=1;aspect=fixed;" vertex="1" parent="1">
          <mxGeometry x="550" y="140" width="40" height="40" as="geometry" />
        </mxCell>
        <mxCell id="Tnm88RIQW7SJwEOPlLvu-27" value="" style="whiteSpace=wrap;html=1;aspect=fixed;" vertex="1" parent="1">
          <mxGeometry x="550" y="190" width="40" height="40" as="geometry" />
        </mxCell>
        <mxCell id="Tnm88RIQW7SJwEOPlLvu-28" value="" style="whiteSpace=wrap;html=1;aspect=fixed;" vertex="1" parent="1">
          <mxGeometry x="550" y="240" width="40" height="40" as="geometry" />
        </mxCell>
        <mxCell id="Tnm88RIQW7SJwEOPlLvu-29" value="" style="whiteSpace=wrap;html=1;aspect=fixed;" vertex="1" parent="1">
          <mxGeometry x="980" y="90" width="40" height="40" as="geometry" />
        </mxCell>
        <mxCell id="Tnm88RIQW7SJwEOPlLvu-30" value="" style="whiteSpace=wrap;html=1;aspect=fixed;" vertex="1" parent="1">
          <mxGeometry x="980" y="140" width="40" height="40" as="geometry" />
        </mxCell>
        <mxCell id="Tnm88RIQW7SJwEOPlLvu-31" value="" style="whiteSpace=wrap;html=1;aspect=fixed;" vertex="1" parent="1">
          <mxGeometry x="980" y="190" width="40" height="40" as="geometry" />
        </mxCell>
        <mxCell id="Tnm88RIQW7SJwEOPlLvu-32" value="" style="whiteSpace=wrap;html=1;aspect=fixed;" vertex="1" parent="1">
          <mxGeometry x="980" y="240" width="40" height="40" as="geometry" />
        </mxCell>
        <mxCell id="Tnm88RIQW7SJwEOPlLvu-33" value="" style="whiteSpace=wrap;html=1;aspect=fixed;" vertex="1" parent="1">
          <mxGeometry x="930" y="70" width="40" height="40" as="geometry" />
        </mxCell>
        <mxCell id="Tnm88RIQW7SJwEOPlLvu-34" value="" style="whiteSpace=wrap;html=1;aspect=fixed;" vertex="1" parent="1">
          <mxGeometry x="930" y="120" width="40" height="40" as="geometry" />
        </mxCell>
        <mxCell id="Tnm88RIQW7SJwEOPlLvu-35" value="" style="whiteSpace=wrap;html=1;aspect=fixed;" vertex="1" parent="1">
          <mxGeometry x="930" y="170" width="40" height="40" as="geometry" />
        </mxCell>
        <mxCell id="Tnm88RIQW7SJwEOPlLvu-36" value="" style="whiteSpace=wrap;html=1;aspect=fixed;" vertex="1" parent="1">
          <mxGeometry x="930" y="220" width="40" height="40" as="geometry" />
        </mxCell>
        <mxCell id="Tnm88RIQW7SJwEOPlLvu-37" value="" style="whiteSpace=wrap;html=1;aspect=fixed;" vertex="1" parent="1">
          <mxGeometry x="930" y="270" width="40" height="40" as="geometry" />
        </mxCell>
        <mxCell id="Tnm88RIQW7SJwEOPlLvu-38" value="" style="whiteSpace=wrap;html=1;aspect=fixed;" vertex="1" parent="1">
          <mxGeometry x="880" y="50" width="40" height="40" as="geometry" />
        </mxCell>
        <mxCell id="Tnm88RIQW7SJwEOPlLvu-39" value="" style="whiteSpace=wrap;html=1;aspect=fixed;" vertex="1" parent="1">
          <mxGeometry x="880" y="100" width="40" height="40" as="geometry" />
        </mxCell>
        <mxCell id="Tnm88RIQW7SJwEOPlLvu-40" value="" style="whiteSpace=wrap;html=1;aspect=fixed;" vertex="1" parent="1">
          <mxGeometry x="880" y="150" width="40" height="40" as="geometry" />
        </mxCell>
        <mxCell id="Tnm88RIQW7SJwEOPlLvu-41" value="" style="whiteSpace=wrap;html=1;aspect=fixed;" vertex="1" parent="1">
          <mxGeometry x="880" y="200" width="40" height="40" as="geometry" />
        </mxCell>
        <mxCell id="Tnm88RIQW7SJwEOPlLvu-42" value="" style="whiteSpace=wrap;html=1;aspect=fixed;" vertex="1" parent="1">
          <mxGeometry x="880" y="250" width="40" height="40" as="geometry" />
        </mxCell>
        <mxCell id="Tnm88RIQW7SJwEOPlLvu-43" value="" style="whiteSpace=wrap;html=1;aspect=fixed;" vertex="1" parent="1">
          <mxGeometry x="780" y="90" width="40" height="40" as="geometry" />
        </mxCell>
        <mxCell id="Tnm88RIQW7SJwEOPlLvu-44" value="" style="whiteSpace=wrap;html=1;aspect=fixed;" vertex="1" parent="1">
          <mxGeometry x="780" y="140" width="40" height="40" as="geometry" />
        </mxCell>
        <mxCell id="Tnm88RIQW7SJwEOPlLvu-45" value="" style="whiteSpace=wrap;html=1;aspect=fixed;" vertex="1" parent="1">
          <mxGeometry x="780" y="190" width="40" height="40" as="geometry" />
        </mxCell>
        <mxCell id="Tnm88RIQW7SJwEOPlLvu-46" value="" style="whiteSpace=wrap;html=1;aspect=fixed;" vertex="1" parent="1">
          <mxGeometry x="780" y="240" width="40" height="40" as="geometry" />
        </mxCell>
        <mxCell id="Tnm88RIQW7SJwEOPlLvu-47" value="" style="whiteSpace=wrap;html=1;aspect=fixed;" vertex="1" parent="1">
          <mxGeometry x="830" y="80" width="40" height="40" as="geometry" />
        </mxCell>
        <mxCell id="Tnm88RIQW7SJwEOPlLvu-48" value="" style="whiteSpace=wrap;html=1;aspect=fixed;" vertex="1" parent="1">
          <mxGeometry x="830" y="130" width="40" height="40" as="geometry" />
        </mxCell>
        <mxCell id="Tnm88RIQW7SJwEOPlLvu-49" value="" style="whiteSpace=wrap;html=1;aspect=fixed;" vertex="1" parent="1">
          <mxGeometry x="830" y="180" width="40" height="40" as="geometry" />
        </mxCell>
        <mxCell id="Tnm88RIQW7SJwEOPlLvu-50" value="" style="whiteSpace=wrap;html=1;aspect=fixed;" vertex="1" parent="1">
          <mxGeometry x="830" y="230" width="40" height="40" as="geometry" />
        </mxCell>
        <mxCell id="Tnm88RIQW7SJwEOPlLvu-51" value="" style="whiteSpace=wrap;html=1;aspect=fixed;" vertex="1" parent="1">
          <mxGeometry x="520" y="300" width="40" height="40" as="geometry" />
        </mxCell>
        <mxCell id="Tnm88RIQW7SJwEOPlLvu-52" value="" style="whiteSpace=wrap;html=1;aspect=fixed;" vertex="1" parent="1">
          <mxGeometry x="570" y="330" width="40" height="40" as="geometry" />
        </mxCell>
        <mxCell id="Tnm88RIQW7SJwEOPlLvu-53" value="" style="whiteSpace=wrap;html=1;aspect=fixed;" vertex="1" parent="1">
          <mxGeometry x="620" y="350" width="40" height="40" as="geometry" />
        </mxCell>
        <mxCell id="Tnm88RIQW7SJwEOPlLvu-54" value="" style="whiteSpace=wrap;html=1;aspect=fixed;" vertex="1" parent="1">
          <mxGeometry x="710" y="350" width="40" height="40" as="geometry" />
        </mxCell>
        <mxCell id="Tnm88RIQW7SJwEOPlLvu-55" value="" style="whiteSpace=wrap;html=1;aspect=fixed;" vertex="1" parent="1">
          <mxGeometry x="760" y="330" width="40" height="40" as="geometry" />
        </mxCell>
        <mxCell id="Tnm88RIQW7SJwEOPlLvu-56" value="" style="whiteSpace=wrap;html=1;aspect=fixed;" vertex="1" parent="1">
          <mxGeometry x="810" y="300" width="40" height="40" as="geometry" />
        </mxCell>
      </root>
    </mxGraphModel>
  </diagram>
</mxfile>
